<?xml version="1.0" encoding="utf-8"?>
<!-- Generator: Adobe Illustrator 27.3.1, SVG Export Plug-In . SVG Version: 6.00 Build 0)  -->
<svg version="1.1" id="Camada_1" xmlns="http://www.w3.org/2000/svg" xmlns:xlink="http://www.w3.org/1999/xlink" x="0px" y="0px"
	 viewBox="0 0 2500 2500" style="enable-background:new 0 0 2500 2500;" xml:space="preserve">
<style type="text/css">
	.st0{fill:#FFFFFF;}
	.st1{fill:#F2E6DC;}
	.st2{fill:#E6D0BE;}
	.st3{fill:#363E44;}
	.st4{fill:#F7F1EB;}
	.st5{fill:#7474ED;}
	.st6{fill:#E0AA63;}
	.st7{fill:#BCC9DD;}
	.st8{fill:#84524D;}
	.st9{fill:#5D7693;}
	.st10{clip-path:url(#SVGID_00000013891374695985071630000008747069433583117754_);fill:#363E44;}
	.st11{fill:#40484C;}
	.st12{fill:#51658E;}
</style>
<g id="Background">
	<rect class="st0" width="2500" height="2500"/>
</g>
<g id="Illustration">
	<g id="Smart_delivery_tracking_1_">
		<circle class="st1" cx="1250.1" cy="1250" r="915"/>
		<g>
			<rect x="928.1" y="551.9" class="st0" width="657" height="1239.5"/>
			<g>
				<g>
					<path class="st2" d="M2025.2,1452.8V1397l-10.9-10.9v-44l-25.5-25.5v46.4l-15.4,15.4l-24.5-24.5l22.2-22.2l-39.2-39.2l-85,85
						h-26.1l-37.6,37.6c-0.6,44.5-1.2,112.7,0.6,112.7c2.6,0,65.3,0,65.3,0V1505h48.8v33.1h23.5v35.7l30.9,30.9l88-88v-64
						L2025.2,1452.8L2025.2,1452.8z"/>
				</g>
				<path class="st2" d="M604.7,1233c0-7.8-5.2-115,0-115s-65.3,0-65.3,0v-60.1h88.9l32.7,32.7v-64l67.3-67.3h67.3v-47.7h88.9V770.4
					l-34-34L779.9,807l-31.4-31.4l70.6-70.6l17,17l39.2-39.2l49.7,49.7l27.4-27.4v-60.1H824.3l31.4-31.4h-183l-51.6-51.6h-71.2
					L394.6,717.1h63.7l42.6-42.6l43.6,43.6l-45.7,45.7v77.1l-53.8,53.7v210.3L604.7,1233z"/>
				<path class="st2" d="M644.3,1233h90.2l125.8,125.8h52.6v84.7l-38.2,38.2v92.2c0,0-30.4,22.5-30.4,30.4s0,209.7,0,209.7
					l34.3,34.3v34.3l-153.2-153.2v-121.2l-46.1-46.1v-65.6l-68.4-68.4v-131.1L644.3,1233z"/>
				<path class="st2" d="M1026.6,1124v162.7c0,0,117.6-15.7,117.6,0s70.6,70.6,70.6,70.6v76.5c0,0,0,74.5,0,82.3
					c0,7.8,49.5,49.5,49.5,49.5v75.9h66.1l63.3-63.3V1471l42-42v-99.1l63-63l-30.5-30.5h-45.7l-38.5-38.5v-115l58.5,58.5l-35.6,35.6
					l32.3,32.3l60.8-60.8V1122h55.9l51,51v41.2l42.1,42.1l89.2-89.2l26.5,26.5v77.4h48l-23.5-23.5v-33.3l26.1,26.1l20,20l51-51
					l-44.2-44.2l76.5-76.5l-70.5-70.5L1965.1,901l-81.4-81.4l78.6-78.6v49.8l69.2,69.2v-63.3l-40.3-40.3l81.7-81.7h-44.7v-34.9h-345
					l-62.7-62.7l-76.5,76.5l19.6,19.6l-73.5,73.5l-29.4-29.4l-43.1,43.1l-65.7-65.7l-108.8,108.8l29.4,29.4v26.5l20.1-20.1v-40.7
					h37.7v14.5l-62,62l-24.8-24.8l-71.9,71.9v22l-14.9,14.9h-35v19.1l-18.7,18.7l28,28h31.7v-32.3l25.8-25.8l22.2,22.2
					c0,0,11.4-24.5,18-18c6.5,6.5,28.1,24.8,28.1,28.1c0,3.3,3.3,20.3,0,20.3c-3.3,0,13.1-13.1,13.1-13.1v-21.6l-20.3-20.3l8.2-8.2
					l22.2,22.2v27.1l17.5,17.5v-15.5l15.3-15.3l36.6-36.6v-22h23.8v24.8c0,0,14.7-1.6,16.3,0c1.6,1.6,16.7,16.7,16.7,16.7v16.7
					h-36.9v-13.1h-25.5l-23.9,23.9v14.7l16.2,16.2h37.1v29.6h-68.6l-19.3-19.3l-27.8,27.8l-24.5-24.5v-21.9h-48.7l-22.5,22.5h-48.7
					l-60.8,60.8v14.7L1026.6,1124z"/>
			</g>
			<path class="st3" d="M1560.8,1865.6h-613c-39,0-70.8-31.7-70.8-70.8V536.7c0-39,31.7-70.8,70.8-70.8h613
				c39,0,70.8,31.7,70.8,70.8v1258.1C1631.6,1833.8,1599.8,1865.6,1560.8,1865.6z M947.8,467.9c-37.9,0-68.8,30.8-68.8,68.8v1258.1
				c0,37.9,30.8,68.8,68.8,68.8h613c37.9,0,68.8-30.8,68.8-68.8V536.7c0-37.9-30.8-68.8-68.8-68.8H947.8z"/>
			<path class="st3" d="M1347.1,513.6h-181.1c-0.6,0-1-0.4-1-1s0.4-1,1-1h181.1c0.6,0,1,0.4,1,1
				C1348.1,513.2,1347.7,513.6,1347.1,513.6z"/>
		</g>
		<g>
			<rect x="1372.6" y="1233.5" class="st4" width="643.6" height="831.6"/>
			<g>
				<g>
					<rect x="1466.8" y="1356.1" class="st0" width="455.2" height="55.5"/>
					<g>
						<rect x="1559.3" y="1429.5" class="st2" width="362.7" height="27.8"/>
						<rect x="1466.8" y="1429.5" class="st2" width="73.2" height="27.8"/>
					</g>
					<g>
						<rect x="1559.3" y="1475.1" class="st2" width="362.7" height="27.8"/>
						<rect x="1466.8" y="1475.1" class="st2" width="73.2" height="27.8"/>
					</g>
					<g>
						<rect x="1559.3" y="1520.7" class="st2" width="362.7" height="27.8"/>
						<rect x="1466.8" y="1520.7" class="st2" width="73.2" height="27.8"/>
					</g>
				</g>
				<g>
					<rect x="1466.8" y="1605.5" class="st5" width="455.2" height="337"/>
					<path class="st6" d="M1579.4,1924c-0.6,0-1-0.4-1-1v-297.9c0-0.6,0.4-1,1-1s1,0.4,1,1V1923
						C1580.4,1923.5,1580,1924,1579.4,1924z"/>
					<path class="st6" d="M1782.7,1924c-0.6,0-1-0.4-1-1v-198.2c0-0.6,0.4-1,1-1s1,0.4,1,1V1923
						C1783.7,1923.5,1783.3,1924,1782.7,1924z"/>
					<g>
						<path class="st4" d="M1825.8,1713.8c-0.3,0-0.5-0.1-0.7-0.3l-22.7-22.7l-18.9,18.9c-0.4,0.4-1,0.4-1.4,0l-19.5-19.5
							l-22.4,22.4c-0.3,0.3-0.7,0.4-1.1,0.2s-0.6-0.5-0.6-0.9v-102c0-0.6,0.4-1,1-1s1,0.4,1,1v99.6l21.4-21.4c0.4-0.4,1-0.4,1.4,0
							l19.5,19.5l18.9-18.9c0.4-0.4,1-0.4,1.4,0l21.7,21.7V1610c0-0.6,0.4-1,1-1s1,0.4,1,1v102.8c0,0.4-0.2,0.8-0.6,0.9
							C1826.1,1713.8,1826,1713.8,1825.8,1713.8z"/>
					</g>
				</g>
			</g>
		</g>
		<g>
			<g>
				<path class="st7" d="M1007.7,1596c0,0,55.6,152.3,170.9,152.3c82.6,0,124.6-55.4,133.4-134.8c9.6-86.3-121.8-224.9-282-354.3
					C1029.9,1259.1,974,1470.1,1007.7,1596z"/>
				<g>
					<path class="st7" d="M619.7,1587c0,0-80.5,205.4-198.6,127.7c-210.9-138.8,11.7-347,172.7-428.7
						c209.6-106.3,361.2-49,436.1-26.9l-13.4,443.2c-1.3,41.8-35.5,75-77.3,75H665c-52.3,0-89.5-50.8-73.7-100.6L619.7,1587z"/>
					<path class="st3" d="M586.9,1452.7c-0.1,0-0.2,0-0.3,0c-0.5-0.1-0.9-0.7-0.7-1.2l13.8-53.1c0.1-0.5,0.7-0.9,1.2-0.7
						c0.5,0.1,0.9,0.7,0.7,1.2l-13.8,53.1C587.8,1452.4,587.4,1452.7,586.9,1452.7z"/>
					<path class="st3" d="M1017.8,1660C1017.8,1660,1017.8,1660,1017.8,1660c-0.6,0-1-0.5-1-1l1.9-63c0-0.6,0.5-1,1-1
						c0.6,0,1,0.5,1,1l-1.9,63C1018.8,1659.6,1018.3,1660,1017.8,1660z"/>
				</g>
				<g>
					<g>
						<g>
							<path class="st8" d="M468.7,1505.3c0,0,144-60.3,221.1-90.2c133.6-51.9,210.6-37.5,210.7-18.3c0.1,20.8-40,9-59.1,15
								c3.1,1.5,11.3,7.8,11.7,18.1c0.6,15.3-10.6,20-11.4,20.9c1.1,0.4,12.7,5.4,14.7,15.5c2.3,11.4-2.4,20.2-9.4,25.5
								c2.7,1.2,12.1,6.5,13.8,16.3c1.7,10.1-3.3,21.9-12.8,25.1c-17.4,5.8-69.4,22.1-93.9,33.3c-48.1,22.1-209,125.2-286.3,137.4
								c-58,2.3-84.9-78.6-60.7-142.4C422.4,1521.4,468.7,1505.3,468.7,1505.3z"/>
							<g>
								<path class="st3" d="M826.1,1530.5c-0.5,0-0.9-0.3-1-0.8l-2.7-16.3c-0.1-0.5,0.3-1.1,0.8-1.1c0.5-0.1,1.1,0.3,1.1,0.8
									l2.7,16.3c0.1,0.5-0.3,1.1-0.8,1.1C826.2,1530.5,826.2,1530.5,826.1,1530.5z"/>
								<path class="st3" d="M819,1491.2c-0.5,0-0.9-0.4-1-0.9l-2.5-18.6c-0.1-0.5,0.3-1.1,0.9-1.1c0.6-0.1,1.1,0.3,1.1,0.9
									l2.5,18.6c0.1,0.5-0.3,1.1-0.9,1.1C819.1,1491.2,819,1491.2,819,1491.2z"/>
								<path class="st3" d="M814.1,1449.4c-0.5,0-0.9-0.3-1-0.8c-0.5-3-0.9-5.8-1.4-8.6c-0.4-2.8-0.9-5.5-1.4-8.5
									c-0.1-0.5,0.3-1.1,0.8-1.2c0.6-0.1,1.1,0.3,1.1,0.8c0.5,3.1,0.9,5.8,1.4,8.6c0.4,2.8,0.9,5.5,1.4,8.5
									c0.1,0.5-0.3,1.1-0.8,1.2C814.2,1449.4,814.2,1449.4,814.1,1449.4z"/>
								<path class="st3" d="M807,1415.5c-0.5,0-0.9-0.3-1-0.8l-3.8-16c-0.1-0.5,0.2-1.1,0.7-1.2c0.5-0.1,1.1,0.2,1.2,0.7l3.8,16
									c0.1,0.5-0.2,1.1-0.7,1.2C807.2,1415.5,807.1,1415.5,807,1415.5z"/>
							</g>
						</g>
					</g>
					<path class="st9" d="M478.1,1485.5c4.1-1.9-69.9,151.4,36.7,204.8c0,0-36.4,26-80.2,13.7
						C390.9,1691.6,345.2,1545.7,478.1,1485.5z"/>
				</g>
				<g>
					<g>
						<path class="st8" d="M1039.2,1474.6l67,169.4c18.1,45.8,70.5,67.8,115.9,48.5l0,0c49.3-20.9,68.6-80.6,40.8-126.4l-93.1-153.5
							L1039.2,1474.6z"/>
						<path class="st9" d="M1090.6,1638.4c0,0,142,54.8,170.8-95.4l24.6,58.6c0,0,19.4,70.9-49.2,102.3
							C1168.1,1735.4,1112.9,1689.8,1090.6,1638.4z"/>
					</g>
					<g>
						<g>
							<g>
								<path class="st3" d="M883.7,1544c-0.1,0-0.2,0-0.3-0.1c-0.5-0.2-0.8-0.8-0.6-1.3l91.6-257.1c0.1-0.4,0.5-0.6,1-0.7
									l200.8,1.8c0.6,0,1,0.5,1,1c0,0.5-0.5,1-1,1c0,0,0,0,0,0l-200-1.8l-91.3,256.4C884.5,1543.8,884.2,1544,883.7,1544z"/>
							</g>
							<g>
								<polygon class="st3" points="1099.6,1560.6 898.8,1560.6 990.4,1303.5 1191.2,1303.5 								"/>
							</g>
						</g>
						<g>
							<path class="st8" d="M1126.1,1469.9c17.7,10.1,19.8,21.9,14.2,31.7c-5.6,9.9-16.8,14-34.6,4s-35.2-30.6-29.6-40.5
								C1081.8,1455.2,1108.4,1459.8,1126.1,1469.9z"/>
							<path class="st8" d="M1141.6,1433.6c20.5,11.7,23,25.4,16.5,36.8c-6.5,11.4-19.5,16.3-40.1,4.6
								c-20.5-11.7-40.8-35.5-34.3-46.9C1090.3,1416.6,1121.1,1421.9,1141.6,1433.6z"/>
							<path class="st8" d="M1158.6,1412.7c17.7,10.1,28.9,5.9,34.6-4c5.6-9.9,3.5-21.7-14.2-31.7s-44.3-14.6-49.9-4.8
								S1140.9,1402.6,1158.6,1412.7z"/>
							<path class="st8" d="M1135.3,1444.6c20.5,11.7,33.5,6.8,40.1-4.6c6.5-11.4,4-25.1-16.5-36.8s-51.3-16.9-57.8-5.5
								C1094.6,1409.1,1114.8,1432.9,1135.3,1444.6z"/>
							<path class="st3" d="M1124.1,1512.4c-0.7,0-1.5,0-2.2-0.1c-0.6-0.1-1-0.5-0.9-1.1s0.6-1,1.1-0.9c7.6,0.7,13.6-2.5,17.4-9.2
								c3.6-6.4,3.5-12.9-0.5-18.9c-0.2-0.3-0.2-0.7-0.1-1c0.2-0.3,0.5-0.5,0.9-0.5c7.5-0.2,13.6-3.9,17.5-10.8
								c3.5-6.1,4-12.5,1.4-18.4c-0.1-0.3-0.1-0.6,0-0.9s0.4-0.5,0.7-0.5c6.4-0.8,11.6-4.5,15.1-10.6c0.3-0.5,0.9-0.6,1.4-0.4
								s0.6,0.9,0.4,1.4c-3.6,6.3-8.8,10.2-15.3,11.4c2.3,6.2,1.6,12.7-2,19c-4,7-10,11-17.5,11.7c3.5,6.3,3.4,13-0.3,19.6
								C1137.3,1508.8,1131.5,1512.4,1124.1,1512.4z"/>
						</g>
					</g>
				</g>
			</g>
			<g>
				<ellipse class="st3" cx="838.8" cy="1068.6" rx="96.9" ry="96.9"/>
				<path class="st8" d="M905.7,1116.9L905.7,1116.9c-12.3-6.8-33.3-24.9-40.1-12.6l-79.5,127.2c-6.8,12.3,33.9,8,46.2,14.8l0,0
					c12.3,6.8,27.7,2.3,34.5-9.9l48.9-84.9C922.5,1139.1,918,1123.7,905.7,1116.9z"/>
				<path class="st8" d="M896.6,1241.3c11,40.3-20.6,101.2-20.6,101.2s-116.5-56.5-116.5-101.2c0-11.4,30.7-20.6,68.6-20.6
					C865.9,1220.7,893.6,1230.3,896.6,1241.3z"/>
				<g>
					<path class="st8" d="M969.9,1151.9c-11,20.6-75.5,11.7-75.5,11.7l-56.3-43.9c-14.7-29.4-2.7-65.1,26.7-79.8
						c29.4-14.7,65.1-2.7,79.8,26.7C944.6,1066.7,981.1,1130.9,969.9,1151.9z"/>
					<path class="st8" d="M945.5,1083.7c0,0,22.7,8.2,24,12.7c1.5,5.4-13.6,16.7-13.6,16.7S945.9,1083.6,945.5,1083.7z"/>
					<g>
						<path class="st0" d="M896.3,1105.4c0,0,6.5-9.2,17.3-14.6c2.3-1.1,7.1,19.3,4.4,19.3C906.2,1110.4,896.3,1105.4,896.3,1105.4z
							"/>
						<g>
							<g>
								<defs>
									<path id="SVGID_1_" d="M896.3,1105.4c0,0,9.6-13.6,24.7-17.4s29.9,3.7,29.9,3.7s-9.6,13.6-24.7,17.4
										C911.2,1112.9,896.3,1105.4,896.3,1105.4z"/>
								</defs>
								<clipPath id="SVGID_00000054971302047384443160000001470704892526277523_">
									<use xlink:href="#SVGID_1_"  style="overflow:visible;"/>
								</clipPath>
								<path style="clip-path:url(#SVGID_00000054971302047384443160000001470704892526277523_);fill:#363E44;" d="M913.8,1090.1
									c3.6-10.6,15.1-16.4,25.7-12.8c10.6,3.6,16.4,15.1,12.8,25.7c-3.6,10.6-15.1,16.4-25.7,12.8
									C916,1112.3,910.2,1100.8,913.8,1090.1z"/>
							</g>
						</g>
					</g>
					<path class="st3" d="M943.6,1130.8c-0.3,0-0.7,0-1-0.1c-3.5-0.4-6.5-2.8-7.7-6.2c-0.2-0.5,0.1-1.1,0.6-1.3
						c0.5-0.2,1.1,0.1,1.3,0.6c0.9,2.6,3.3,4.5,6.1,4.8c2.9,0.3,5.7-1.1,7.1-3.6c0.3-0.5,0.9-0.6,1.4-0.3c0.5,0.3,0.6,0.9,0.3,1.4
						C949.9,1129.1,946.8,1130.8,943.6,1130.8z"/>
				</g>
				<path class="st3" d="M795.8,1130.6c0,0,83.6,3.7,136.4-79.9c52.9-83.6-92.2-78.7-152.4-50.4
					C741.2,1018.4,795.8,1130.6,795.8,1130.6z"/>
				<path class="st11" d="M816.6,1197.4c-2.6,0-4.3-0.3-4.5-0.3c-0.5-0.1-0.9-0.6-0.8-1.1c0.1-0.5,0.6-0.9,1.1-0.8
					c0.1,0,13.7,2.1,24.1-6.3c7.4-5.9,11.6-15.6,12.3-28.8c1.2-19.7-13.2-31-22.6-38.4c-5.7-4.5-9.8-7.7-9.1-11.2
					c0.7-3.4,5.9-6.1,17.9-9.3c46-12.3,72.6-66.3,72.9-66.8c0.2-0.5,0.8-0.7,1.3-0.5s0.7,0.8,0.5,1.3c-0.3,0.6-27.3,55.3-74.1,67.9
					c-10.6,2.8-16,5.4-16.5,7.8c-0.5,2.3,3.6,5.5,8.3,9.2c9.8,7.7,24.6,19.3,23.4,40.1c-0.8,13.8-5.2,24-13.1,30.3
					C830.3,1196.4,821.7,1197.4,816.6,1197.4z"/>
				<path class="st3" d="M684,789.1c0,0-82.8,182.8,110.1,267.1c0,0-86.2-150.5,58.3-273.4L684,789.1z"/>
			</g>
			<g>
				<path class="st5" d="M820.9,1979.5l64.2,140.7h246.4l-159.1-445.1l-324.4,0.4c-81.4,125.4-108.5,276.7-100.7,444.7h269.1
					L820.9,1979.5z"/>
				<path class="st3" d="M820.9,1980.5C820.9,1980.5,820.9,1980.5,820.9,1980.5c-0.6,0-1-0.5-1-1l0.8-55.6c0-0.4,0.2-0.7,0.6-0.9
					l37.1-17.7c0.5-0.2,1.1,0,1.3,0.5c0.2,0.5,0,1.1-0.5,1.3l-36.5,17.5l-0.8,55C821.9,1980.1,821.4,1980.5,820.9,1980.5z"/>
				<rect x="646.5" y="1628.7" class="st5" width="325.9" height="55.3"/>
				<path class="st3" d="M869.8,1676.2H666.4c-0.6,0-1-0.4-1-1s0.4-1,1-1h203.4c0.6,0,1,0.4,1,1S870.3,1676.2,869.8,1676.2z"/>
			</g>
		</g>
		<g>
			<path class="st12" d="M1371.4,593.5c38.1,0,69.1,30.9,69.1,69.1c0,38.1-69.1,122.3-69.1,122.3s-69.1-84.2-69.1-122.3
				C1302.3,624.5,1333.2,593.5,1371.4,593.5z"/>
			<ellipse class="st1" cx="1371.3" cy="662.6" rx="47.2" ry="47.2"/>
		</g>
		<path class="st7" d="M1839.1,512.6c-83.8,0-151.7,67.9-151.7,151.7S1839.1,933,1839.1,933s151.7-184.9,151.7-268.6
			C1990.7,580.5,1922.8,512.6,1839.1,512.6z M1839.1,768.1c-57.3,0-103.8-46.5-103.8-103.8c0-57.3,46.5-103.8,103.8-103.8
			s103.8,46.5,103.8,103.8C1942.8,721.6,1896.4,768.1,1839.1,768.1z"/>
		<path class="st3" d="M1840.1,1047.1h-7.3c-0.6,0-1-0.4-1-1s0.4-1,1-1h5.3v-4.7c0-0.6,0.4-1,1-1s1,0.4,1,1V1047.1z M1820.7,1047.1
			h-12c-0.6,0-1-0.4-1-1s0.4-1,1-1h12c0.6,0,1,0.4,1,1S1821.3,1047.1,1820.7,1047.1z M1796.7,1047.1h-12c-0.6,0-1-0.4-1-1s0.4-1,1-1
			h12c0.6,0,1,0.4,1,1S1797.3,1047.1,1796.7,1047.1z M1772.7,1047.1h-12c-0.6,0-1-0.4-1-1s0.4-1,1-1h12c0.6,0,1,0.4,1,1
			S1773.3,1047.1,1772.7,1047.1z M1748.7,1047.1h-12c-0.6,0-1-0.4-1-1s0.4-1,1-1h12c0.6,0,1,0.4,1,1S1749.3,1047.1,1748.7,1047.1z
			 M1724.7,1047.1h-12c-0.6,0-1-0.4-1-1s0.4-1,1-1h12c0.6,0,1,0.4,1,1S1725.3,1047.1,1724.7,1047.1z M1700.7,1047.1h-12
			c-0.6,0-1-0.4-1-1s0.4-1,1-1h12c0.6,0,1,0.4,1,1S1701.3,1047.1,1700.7,1047.1z M1676.7,1047.1h-12c-0.6,0-1-0.4-1-1s0.4-1,1-1h12
			c0.6,0,1,0.4,1,1S1677.3,1047.1,1676.7,1047.1z M1652.7,1047.1h-12c-0.6,0-1-0.4-1-1s0.4-1,1-1h12c0.6,0,1,0.4,1,1
			S1653.3,1047.1,1652.7,1047.1z M1628.7,1047.1h-12c-0.6,0-1-0.4-1-1s0.4-1,1-1h12c0.6,0,1,0.4,1,1S1629.3,1047.1,1628.7,1047.1z
			 M1604.7,1047.1h-12c-0.6,0-1-0.4-1-1s0.4-1,1-1h12c0.6,0,1,0.4,1,1S1605.3,1047.1,1604.7,1047.1z M1580.7,1047.1h-12
			c-0.6,0-1-0.4-1-1s0.4-1,1-1h12c0.6,0,1,0.4,1,1S1581.3,1047.1,1580.7,1047.1z M1556.7,1047.1h-12c-0.6,0-1-0.4-1-1s0.4-1,1-1h12
			c0.6,0,1,0.4,1,1S1557.3,1047.1,1556.7,1047.1z M1532.7,1047.1h-12c-0.6,0-1-0.4-1-1s0.4-1,1-1h12c0.6,0,1,0.4,1,1
			S1533.3,1047.1,1532.7,1047.1z M1508.7,1047.1h-12c-0.6,0-1-0.4-1-1s0.4-1,1-1h12c0.6,0,1,0.4,1,1S1509.3,1047.1,1508.7,1047.1z
			 M1484.7,1047.1h-12c-0.6,0-1-0.4-1-1s0.4-1,1-1h12c0.6,0,1,0.4,1,1S1485.3,1047.1,1484.7,1047.1z M1460.7,1047.1h-12
			c-0.6,0-1-0.4-1-1s0.4-1,1-1h12c0.6,0,1,0.4,1,1S1461.3,1047.1,1460.7,1047.1z M1436.7,1047.1h-12c-0.6,0-1-0.4-1-1s0.4-1,1-1h12
			c0.6,0,1,0.4,1,1S1437.3,1047.1,1436.7,1047.1z M1412.7,1047.1h-12c-0.6,0-1-0.4-1-1s0.4-1,1-1h12c0.6,0,1,0.4,1,1
			S1413.3,1047.1,1412.7,1047.1z M1388.7,1047.1h-12c-0.6,0-1-0.4-1-1s0.4-1,1-1h12c0.6,0,1,0.4,1,1S1389.3,1047.1,1388.7,1047.1z
			 M1372.6,1039.2c-0.6,0-1-0.4-1-1v-12c0-0.6,0.4-1,1-1s1,0.4,1,1v12C1373.6,1038.8,1373.2,1039.2,1372.6,1039.2z M1839.1,1029.4
			c-0.6,0-1-0.4-1-1v-12c0-0.6,0.4-1,1-1s1,0.4,1,1v12C1840.1,1028.9,1839.6,1029.4,1839.1,1029.4z M1372.6,1015.2c-0.6,0-1-0.4-1-1
			v-12c0-0.6,0.4-1,1-1s1,0.4,1,1v12C1373.6,1014.8,1373.2,1015.2,1372.6,1015.2z M1839.1,1005.4c-0.6,0-1-0.4-1-1v-12
			c0-0.6,0.4-1,1-1s1,0.4,1,1v12C1840.1,1004.9,1839.6,1005.4,1839.1,1005.4z M1372.6,991.2c-0.6,0-1-0.4-1-1v-12c0-0.6,0.4-1,1-1
			s1,0.4,1,1v12C1373.6,990.8,1373.2,991.2,1372.6,991.2z M1839.1,981.4c-0.6,0-1-0.4-1-1v-12c0-0.6,0.4-1,1-1s1,0.4,1,1v12
			C1840.1,980.9,1839.6,981.4,1839.1,981.4z M1372.6,967.2c-0.6,0-1-0.4-1-1v-12c0-0.6,0.4-1,1-1s1,0.4,1,1v12
			C1373.6,966.8,1373.2,967.2,1372.6,967.2z M1839.1,957.4c-0.6,0-1-0.4-1-1v-0.8c0-0.6,0.4-1,1-1s1,0.4,1,1v0.8
			C1840.1,956.9,1839.6,957.4,1839.1,957.4z M1372.6,943.2c-0.6,0-1-0.4-1-1v-12c0-0.6,0.4-1,1-1s1,0.4,1,1v12
			C1373.6,942.8,1373.2,943.2,1372.6,943.2z M1372.6,919.2c-0.6,0-1-0.4-1-1v-12c0-0.6,0.4-1,1-1s1,0.4,1,1v12
			C1373.6,918.8,1373.2,919.2,1372.6,919.2z M1372.6,895.2c-0.6,0-1-0.4-1-1v-12c0-0.6,0.4-1,1-1s1,0.4,1,1v12
			C1373.6,894.8,1373.2,895.2,1372.6,895.2z"/>
		<g>
			<path class="st12" d="M1343.5,839c0,15.4,12.5,27.9,27.9,27.9s27.9-12.5,27.9-27.9s-12.5-27.9-27.9-27.9
				C1356,811.1,1343.5,823.6,1343.5,839z"/>
			<g>
				<path class="st3" d="M1328.5,812.1H991c-0.6,0-1-0.4-1-1s0.4-1,1-1h337.4c0.6,0,1,0.4,1,1S1329,812.1,1328.5,812.1z"/>
				<path class="st3" d="M1219.1,840H991c-0.6,0-1-0.4-1-1s0.4-1,1-1h228c0.6,0,1,0.4,1,1C1220.1,839.5,1219.6,840,1219.1,840z"/>
				<path class="st3" d="M1328.5,840h-76.5c-0.6,0-1-0.4-1-1s0.4-1,1-1h76.5c0.6,0,1,0.4,1,1S1329,840,1328.5,840z"/>
				<path class="st3" d="M1083.6,867.8H991c-0.6,0-1-0.4-1-1s0.4-1,1-1h92.5c0.6,0,1,0.4,1,1
					C1084.6,867.4,1084.1,867.8,1083.6,867.8z"/>
				<path class="st3" d="M1328.5,867.8h-183.4c-0.6,0-1-0.4-1-1s0.4-1,1-1h183.4c0.6,0,1,0.4,1,1
					C1329.5,867.4,1329,867.8,1328.5,867.8z"/>
			</g>
		</g>
		<g>
			<rect x="991" y="590.7" class="st5" width="245.7" height="182"/>
			<path class="st6" d="M1051.8,763.1c-0.6,0-1-0.4-1-1V601.2c0-0.6,0.4-1,1-1s1,0.4,1,1v160.8
				C1052.8,762.6,1052.4,763.1,1051.8,763.1z"/>
			<path class="st6" d="M1161.6,763.1c-0.6,0-1-0.4-1-1v-107c0-0.6,0.4-1,1-1s1,0.4,1,1v107C1162.6,762.6,1162.1,763.1,1161.6,763.1
				z"/>
			<g>
				<path class="st4" d="M1184.9,649.6c-0.3,0-0.5-0.1-0.7-0.3l-11.9-11.9l-9.9,9.9c-0.4,0.4-1,0.4-1.4,0l-10.2-10.2l-11.8,11.8
					c-0.3,0.3-0.7,0.4-1.1,0.2c-0.4-0.2-0.6-0.5-0.6-0.9v-55.1c0-0.6,0.4-1,1-1s1,0.4,1,1v52.6l10.8-10.8c0.4-0.4,1-0.4,1.4,0
					l10.2,10.2l9.9-9.9c0.2-0.2,0.4-0.3,0.7-0.3l0,0c0.3,0,0.5,0.1,0.7,0.3l10.9,10.9v-53.1c0-0.6,0.4-1,1-1s1,0.4,1,1v55.5
					c0,0.4-0.2,0.8-0.6,0.9C1185.1,649.6,1185,649.6,1184.9,649.6z"/>
			</g>
		</g>
	</g>
</g>
</svg>
